<svg width="10" height="10" viewBox="0 0 10 10" fill="none" xmlns="http://www.w3.org/2000/svg">
<g clip-path="url(#clip0_91_172)">
<path d="M9.9993 5.03027C9.9993 2.25152 7.76055 -0.000976562 4.9993 -0.000976562C2.2368 -0.000351562 -0.00195312 2.25152 -0.00195312 5.0309C-0.00195312 7.54152 1.8268 9.62277 4.2168 10.0003V6.48465H2.94805V5.0309H4.21805V3.92152C4.21805 2.6609 4.96492 1.96465 6.1068 1.96465C6.6543 1.96465 7.22617 2.06277 7.22617 2.06277V3.30027H6.59555C5.97492 3.30027 5.78117 3.6884 5.78117 4.08652V5.03027H7.16742L6.94617 6.48402H5.78055V9.99965C8.17055 9.62215 9.9993 7.5409 9.9993 5.03027Z" fill="black"/>
</g>
<defs>
<clipPath id="clip0_91_172">
<rect width="10" height="10" fill="white"/>
</clipPath>
</defs>
</svg>
