<svg width="11" height="11" viewBox="0 0 11 11" fill="none" xmlns="http://www.w3.org/2000/svg">
<g clip-path="url(#clip0_91_168)">
<path d="M5.5 0C4.00744 0 3.81975 0.006875 3.23331 0.033C2.64688 0.0605 2.24744 0.152625 1.8975 0.28875C1.53027 0.426474 1.19772 0.643086 0.923313 0.923313C0.643086 1.19772 0.426474 1.53027 0.28875 1.8975C0.152625 2.24675 0.0598125 2.64687 0.033 3.23125C0.006875 3.81906 0 4.00606 0 5.50069C0 6.99394 0.006875 7.18094 0.033 7.76737C0.0605 8.35313 0.152625 8.75256 0.28875 9.1025C0.429688 9.46412 0.617375 9.77075 0.923313 10.0767C1.22856 10.3826 1.53519 10.571 1.89681 10.7113C2.24744 10.8474 2.64619 10.9402 3.23194 10.967C3.81906 10.9931 4.00606 11 5.5 11C6.99394 11 7.18025 10.9931 7.76737 10.967C8.35244 10.9395 8.75325 10.8474 9.10319 10.7113C9.47017 10.5734 9.80248 10.3568 10.0767 10.0767C10.3826 9.77075 10.5703 9.46412 10.7113 9.1025C10.8467 8.75256 10.9395 8.35313 10.967 7.76737C10.9931 7.18094 11 6.99394 11 5.5C11 4.00606 10.9931 3.81906 10.967 3.23194C10.9395 2.64688 10.8467 2.24675 10.7113 1.8975C10.5735 1.53027 10.3569 1.19772 10.0767 0.923313C9.80228 0.643086 9.46973 0.426474 9.1025 0.28875C8.75187 0.152625 8.35175 0.0598125 7.76669 0.033C7.17956 0.006875 6.99325 0 5.49863 0H5.5ZM5.00706 0.991375H5.50069C6.96919 0.991375 7.14313 0.996188 7.72269 1.023C8.25894 1.04706 8.55044 1.13713 8.74431 1.21206C9.00075 1.31175 9.18431 1.43138 9.37681 1.62388C9.56931 1.81638 9.68825 1.99925 9.78794 2.25638C9.86356 2.44956 9.95294 2.74106 9.977 3.27731C10.0038 3.85688 10.0093 4.03081 10.0093 5.49863C10.0093 6.96644 10.0038 7.14106 9.977 7.72062C9.95294 8.25688 9.86287 8.54769 9.78794 8.74156C9.69914 8.98006 9.55848 9.19586 9.37612 9.37337C9.18362 9.56588 9.00075 9.68481 8.74363 9.7845C8.55113 9.86013 8.25962 9.9495 7.72269 9.97425C7.14313 10.0004 6.96919 10.0066 5.50069 10.0066C4.03219 10.0066 3.85756 10.0004 3.278 9.97425C2.74175 9.9495 2.45094 9.86013 2.25706 9.7845C2.01839 9.69599 1.80235 9.55556 1.62456 9.37337C1.44188 9.19573 1.30098 8.97968 1.21206 8.74088C1.13713 8.54769 1.04706 8.25619 1.023 7.71994C0.996875 7.14038 0.991375 6.96644 0.991375 5.49725C0.991375 4.02806 0.996875 3.8555 1.023 3.27594C1.04775 2.73969 1.13713 2.44819 1.21275 2.25431C1.31244 1.99787 1.43206 1.81431 1.62456 1.62181C1.81706 1.42931 1.99994 1.31037 2.25706 1.21069C2.45094 1.13506 2.74175 1.04569 3.278 1.02094C3.78538 0.997563 3.982 0.990688 5.00706 0.99V0.991375ZM8.43631 1.90437C8.34964 1.90437 8.26382 1.92145 8.18374 1.95461C8.10367 1.98778 8.03091 2.0364 7.96962 2.09768C7.90834 2.15897 7.85972 2.23173 7.82655 2.3118C7.79338 2.39188 7.77631 2.4777 7.77631 2.56437C7.77631 2.65105 7.79338 2.73687 7.82655 2.81695C7.85972 2.89702 7.90834 2.96978 7.96962 3.03107C8.03091 3.09235 8.10367 3.14097 8.18374 3.17414C8.26382 3.2073 8.34964 3.22438 8.43631 3.22438C8.61136 3.22438 8.77923 3.15484 8.903 3.03107C9.02678 2.90729 9.09631 2.73942 9.09631 2.56437C9.09631 2.38933 9.02678 2.22146 8.903 2.09768C8.77923 1.97391 8.61136 1.90437 8.43631 1.90437ZM5.50069 2.67575C5.12605 2.6699 4.75399 2.73865 4.40617 2.87797C4.05835 3.0173 3.74173 3.22442 3.47473 3.48729C3.20773 3.75016 2.99569 4.06351 2.85095 4.40912C2.70622 4.75472 2.63168 5.12566 2.63168 5.50034C2.63168 5.87503 2.70622 6.24597 2.85095 6.59157C2.99569 6.93717 3.20773 7.25053 3.47473 7.5134C3.74173 7.77626 4.05835 7.98339 4.40617 8.12271C4.75399 8.26204 5.12605 8.33078 5.50069 8.32494C6.24218 8.31337 6.9494 8.01069 7.46967 7.48223C7.98995 6.95378 8.28156 6.24193 8.28156 5.50034C8.28156 4.75876 7.98995 4.04691 7.46967 3.51845C6.9494 2.99 6.24218 2.68732 5.50069 2.67575ZM5.50069 3.66644C5.74147 3.66644 5.9799 3.71386 6.20236 3.80601C6.42482 3.89815 6.62695 4.03321 6.79721 4.20348C6.96747 4.37374 7.10253 4.57587 7.19468 4.79833C7.28682 5.02078 7.33425 5.25921 7.33425 5.5C7.33425 5.74079 7.28682 5.97922 7.19468 6.20167C7.10253 6.42413 6.96747 6.62626 6.79721 6.79652C6.62695 6.96679 6.42482 7.10185 6.20236 7.19399C5.9799 7.28614 5.74147 7.33356 5.50069 7.33356C5.0144 7.33356 4.54802 7.14038 4.20416 6.79652C3.8603 6.45266 3.66712 5.98629 3.66712 5.5C3.66712 5.01371 3.8603 4.54734 4.20416 4.20348C4.54802 3.85962 5.0144 3.66644 5.50069 3.66644Z" fill="black"/>
</g>
<defs>
<clipPath id="clip0_91_168">
<rect width="11" height="11" fill="white"/>
</clipPath>
</defs>
</svg>
