<svg width="11" height="11" viewBox="0 0 11 11" fill="none" xmlns="http://www.w3.org/2000/svg">
<g clip-path="url(#clip0_91_170)">
<path d="M9.35069 1.59916C8.84648 1.09007 8.24594 0.686469 7.58411 0.411915C6.92227 0.137361 6.21239 -0.00265431 5.49587 3.81047e-05C2.49356 3.81047e-05 0.04675 2.44616 0.044 5.44916C0.044 6.41098 0.295625 7.34666 0.770688 8.1751L0 11L2.89025 10.2424C3.68946 10.6784 4.58546 10.9066 5.49587 10.9059H5.49863C8.50163 10.9059 10.9478 8.45973 10.9505 5.45398C10.9511 4.73764 10.81 4.02826 10.5353 3.36669C10.2606 2.70511 9.85849 2.1044 9.35069 1.59916ZM5.49587 9.98323C4.68406 9.98259 3.88728 9.76416 3.18863 9.35073L3.02362 9.25173L1.309 9.70135L1.76687 8.02866L1.65963 7.8561C1.20574 7.13445 0.965695 6.29893 0.967312 5.44641C0.967312 2.95354 3.00025 0.919913 5.49863 0.919913C6.09382 0.918845 6.68334 1.0356 7.2332 1.26345C7.78306 1.4913 8.28238 1.82574 8.70238 2.24748C9.12374 2.66764 9.4578 3.16704 9.68529 3.71689C9.91278 4.26674 10.0292 4.85617 10.0279 5.45123C10.0251 7.95304 7.99219 9.98323 5.49587 9.98323ZM7.98119 6.5911C7.84575 6.52304 7.17681 6.19373 7.051 6.14698C6.92587 6.10229 6.83444 6.07891 6.74506 6.21504C6.65363 6.35048 6.39237 6.65916 6.314 6.74785C6.23562 6.83929 6.1545 6.8496 6.01837 6.78223C5.88294 6.71348 5.44362 6.57048 4.92388 6.10504C4.51825 5.7441 4.24669 5.29723 4.16556 5.16179C4.08719 5.02566 4.158 4.95279 4.22606 4.88473C4.28587 4.82423 4.3615 4.72523 4.42956 4.64685C4.49831 4.56848 4.521 4.51073 4.56569 4.41998C4.61037 4.32785 4.58906 4.24948 4.55538 4.18141C4.521 4.11335 4.24944 3.44166 4.13462 3.17079C4.02462 2.90335 3.91256 2.94048 3.82869 2.93704C3.75031 2.93223 3.65887 2.93223 3.56744 2.93223C3.49839 2.93398 3.43046 2.94997 3.36788 2.97919C3.3053 3.00841 3.24942 3.05023 3.20375 3.10204C3.07862 3.23816 2.72869 3.56748 2.72869 4.23916C2.72869 4.91085 3.21681 5.55641 3.28556 5.64785C3.35294 5.73929 4.24394 7.1136 5.61137 7.70485C5.9345 7.84579 6.18888 7.92898 6.38756 7.99223C6.71413 8.09673 7.00906 8.08091 7.24419 8.04723C7.50544 8.00735 8.04925 7.71723 8.16406 7.39891C8.27681 7.07991 8.27681 6.80766 8.24244 6.7506C8.20875 6.69285 8.11731 6.65916 7.98119 6.5911Z" fill="black"/>
</g>
<defs>
<clipPath id="clip0_91_170">
<rect width="11" height="11" fill="white"/>
</clipPath>
</defs>
</svg>
